<svg width="48" height="48" viewBox="0 0 48 48" fill="none" xmlns="http://www.w3.org/2000/svg">
<mask id="mask0_45_324" style="mask-type:alpha" maskUnits="userSpaceOnUse" x="0" y="0" width="48" height="48">
<rect width="48" height="48" fill="#D9D9D9"/>
</mask>
<g mask="url(#mask0_45_324)">
<path d="M13.9992 41.8969L20.1492 15.8087C20.3492 14.9978 20.7992 14.3896 21.4992 13.9842C22.1992 13.5787 22.9326 13.376 23.6992 13.376C24.4659 13.376 25.1742 13.5158 25.8242 13.7954C26.4742 14.0751 26.9992 14.4945 27.3992 15.0537L29.3992 17.738C29.9992 18.5489 30.7742 19.2829 31.7242 19.94C32.6742 20.5971 33.7659 21.0795 34.9992 21.387V18.4091H37.9992V41.8969H34.9992V24.8683C33.3992 24.5607 31.9159 24.0714 30.5492 23.4003C29.1826 22.7292 27.9992 21.9043 26.9992 20.9257L25.7992 25.9588L29.9992 29.3142V41.8969H25.9992V31.8307L21.7992 28.4753L18.1992 41.8969H13.9992ZM14.8492 25.3296L10.5992 24.6586C10.0659 24.5747 9.64922 24.344 9.34922 23.9665C9.04922 23.589 8.94922 23.1626 9.04922 22.6873L10.5492 16.1023C10.7492 15.2075 11.3159 14.5015 12.2492 13.9842C13.1826 13.4669 14.1826 13.2921 15.2492 13.4599L17.5492 13.8374L14.8492 25.3296ZM26.9992 12.5372C25.8992 12.5372 24.9576 12.2086 24.1742 11.5515C23.3909 10.8944 22.9992 10.1045 22.9992 9.18176C22.9992 8.25902 23.3909 7.4691 24.1742 6.812C24.9576 6.1549 25.8992 5.82635 26.9992 5.82635C28.0992 5.82635 29.0409 6.1549 29.8242 6.812C30.6076 7.4691 30.9992 8.25902 30.9992 9.18176C30.9992 10.1045 30.6076 10.8944 29.8242 11.5515C29.0409 12.2086 28.0992 12.5372 26.9992 12.5372Z" fill="#3E3E3E"/>
</g>
</svg>
