<svg width="48" height="48" viewBox="0 0 48 48" fill="none" xmlns="http://www.w3.org/2000/svg">
<mask id="mask0_45_312" style="mask-type:alpha" maskUnits="userSpaceOnUse" x="0" y="0" width="48" height="48">
<rect width="48" height="48" fill="#D9D9D9"/>
</mask>
<g mask="url(#mask0_45_312)">
<path d="M8.7502 37.7027L5.9502 35.3539L26.4502 18.1574C25.8502 16.983 25.7669 15.6549 26.2002 14.1729C26.6335 12.6909 27.5835 11.3627 29.0502 10.1884C30.8169 8.70638 32.7835 7.83957 34.9502 7.58791C37.1169 7.33626 38.8835 7.78365 40.2502 8.93007C41.6169 10.0765 42.1502 11.5585 41.8502 13.376C41.5502 15.1935 40.5169 16.8432 38.7502 18.3252C37.3502 19.5555 35.7669 20.3524 34.0002 20.7159C32.2335 21.0794 30.6502 21.0095 29.2502 20.5062L26.7502 22.6033L41.9502 35.3539L39.1502 37.7027L23.9502 25.036L8.7502 37.7027ZM14.6502 23.3583L8.6502 18.3252C6.8502 16.8153 5.9502 15.0117 5.9502 12.9146C5.9502 10.8175 6.8502 9.01396 8.6502 7.50403L21.0502 17.9897L14.6502 23.3583Z" fill="#3E3E3E"/>
</g>
</svg>
