<svg width="48" height="48" viewBox="0 0 48 48" fill="none" xmlns="http://www.w3.org/2000/svg">
<mask id="mask0_45_318" style="mask-type:alpha" maskUnits="userSpaceOnUse" x="0" y="0" width="48" height="48">
<rect width="48" height="48" fill="#D9D9D9"/>
</mask>
<g mask="url(#mask0_45_318)">
<path d="M22 35.0375C23.8 35.0375 25.425 34.639 26.875 33.8421C28.325 33.0452 29.4167 32.0036 30.15 30.7174C29.6167 30.3259 29.0833 29.9135 28.55 29.4801C28.0167 29.0467 27.4833 28.5923 26.95 28.117C26.75 29.1795 26.1917 30.0393 25.275 30.6964C24.3583 31.3535 23.2667 31.6821 22 31.6821C20.6 31.6821 19.4167 31.2766 18.45 30.4657C17.4833 29.6549 17 28.6622 17 27.4878C17 26.3134 17.4917 25.3278 18.475 24.5309C19.4583 23.734 20.65 23.3215 22.05 23.2936C21.65 22.7903 21.2667 22.28 20.9 21.7627C20.5333 21.2454 20.1833 20.7211 19.85 20.1898C17.8833 20.6092 16.25 21.49 14.95 22.8322C13.65 24.1744 13 25.7262 13 27.4878C13 29.5849 13.875 31.3675 15.625 32.8355C17.375 34.3035 19.5 35.0375 22 35.0375ZM16 10.7108H18.5C18.3333 11.2421 18.2083 11.7873 18.125 12.3466C18.0417 12.9058 18 13.479 18 14.0662H17.75L14.1 17.4216H6V37.554H38V30.6335C38.6667 30.1302 39.3333 29.6059 40 29.0607C40.6667 28.5154 41.3333 27.9632 42 27.4039V37.554C42 38.4768 41.6083 39.2667 40.825 39.9238C40.0417 40.5809 39.1 40.9094 38 40.9094H6C4.9 40.9094 3.95833 40.5809 3.175 39.9238C2.39167 39.2667 2 38.4768 2 37.554V17.4216C2 16.4989 2.39167 15.709 3.175 15.0519C3.95833 14.3948 4.9 14.0662 6 14.0662H12.3L16 10.7108ZM34 29.1655C38.0333 26.2855 41.0417 23.6151 43.025 21.1545C45.0083 18.6939 46 16.415 46 14.3179C46 11.1582 44.7917 8.64863 42.375 6.78918C39.9583 4.92973 37.1667 4 34 4C30.8333 4 28.0417 4.92973 25.625 6.78918C23.2083 8.64863 22 11.1582 22 14.3179C22 16.415 22.9917 18.6939 24.975 21.1545C26.9583 23.6151 29.9667 26.2855 34 29.1655ZM34 24.6777C30.5333 21.9374 28.3333 19.7285 27.4 18.0507C26.4667 16.373 26 15.1288 26 14.3179C26 12.053 26.8417 10.3263 28.525 9.13796C30.2083 7.94959 32.0333 7.3554 34 7.3554C35.9667 7.3554 37.7917 7.94959 39.475 9.13796C41.1583 10.3263 42 12.053 42 14.3179C42 15.1288 41.5333 16.373 40.6 18.0507C39.6667 19.7285 37.4667 21.9374 34 24.6777ZM30.3 19.0993L31.7 15.2825L28 12.8079H32.55L34 9.0331L35.45 12.8079H40L36.3 15.2825L37.7 19.0993L34 16.7505L30.3 19.0993Z" fill="#3E3E3E"/>
</g>
</svg>
